<?xml version="1.0" standalone="no"?><!DOCTYPE svg PUBLIC "-//W3C//DTD SVG 1.1//EN" "http://www.w3.org/Graphics/SVG/1.1/DTD/svg11.dtd"><svg t="1738994944099" class="icon" viewBox="0 0 1024 1024" version="1.1" xmlns="http://www.w3.org/2000/svg" p-id="6891" xmlns:xlink="http://www.w3.org/1999/xlink" width="200" height="200"><path d="M76.8 315.733333v554.666667c0 42.666667 34.133333 76.8 81.066667 76.8h708.266666c21.333333 0 42.666667-8.533333 55.466667-21.333333 12.8-12.8 21.333333-34.133333 21.333333-55.466667v-554.666667c0-42.666667-34.133333-76.8-81.066666-76.8H157.866667c-21.333333 0-42.666667 8.533333-55.466667 21.333334-17.066667 12.8-25.6 34.133333-25.6 55.466666z m162.133333-157.866666v-38.4C238.933333 51.2 290.133333 0 354.133333 0h315.733334a116.565333 116.565333 0 0 1 115.2 115.2v38.4h76.8c85.333333 0 157.866667 68.266667 157.866666 157.866667v554.666666c0 42.666667-17.066667 81.066667-46.933333 110.933334-29.866667 29.866667-68.266667 46.933333-110.933333 46.933333H157.866667c-85.333333 0-157.866667-68.266667-157.866667-157.866667v-554.666666c0-42.666667 17.066667-81.066667 46.933333-110.933334 29.866667-29.866667 68.266667-46.933333 110.933334-46.933333h81.066666z m76.8 0h392.533334v-38.4c0-8.533333-4.266667-21.333333-12.8-25.6-8.533333-8.533333-17.066667-12.8-25.6-12.8H354.133333c-21.333333 0-38.4 17.066667-38.4 38.4v38.4z m0 354.133333c0-64 51.2-119.466667 119.466667-119.466667h157.866667c64 0 119.466667 51.2 119.466666 119.466667 0 64-51.2 119.466667-119.466666 119.466667h-157.866667c-29.866667 0-59.733333-12.8-85.333333-34.133334-21.333333-25.6-34.133333-55.466667-34.133334-85.333333z m76.8 0c0 21.333333 17.066667 38.4 38.4 38.4h157.866667c21.333333 0 38.4-17.066667 38.4-38.4 0-8.533333-4.266667-21.333333-12.8-29.866667-8.533333-8.533333-17.066667-12.8-29.866667-12.8H426.666667c-17.066667 4.266667-34.133333 21.333333-34.133334 42.666667zM0 473.6h392.533333v76.8H0v-76.8z m631.466667 0H1024v76.8h-392.533333v-76.8z m0 0" fill="#333333" p-id="6892"></path></svg>